<?xml version="1.0" encoding="utf-8"?>
<!-- Generator: Adobe Illustrator 23.0.0, SVG Export Plug-In . SVG Version: 6.00 Build 0)  -->
<svg version="1.1" id="Capa_1" xmlns="http://www.w3.org/2000/svg" xmlns:xlink="http://www.w3.org/1999/xlink" x="0px" y="0px"
	 viewBox="0 0 102 100" style="enable-background:new 0 0 102 100;" xml:space="preserve">
<style type="text/css">
	.st0{fill:#FF5773;}
</style>
<g>
	<g>
		<path class="st0" d="M87.1,82.7L65.9,61.5C70,56.4,72.5,50,72.5,43c0-16.3-13.2-29.5-29.5-29.5S13.5,26.7,13.5,43
			S26.7,72.5,43,72.5c7,0,13.5-2.5,18.5-6.6l21.2,21.2c0.6,0.6,1.4,0.9,2.2,0.9s1.6-0.3,2.2-0.9C88.3,85.9,88.3,83.9,87.1,82.7z
			 M43,66.3c-12.8,0-23.3-10.4-23.3-23.3S30.1,19.7,43,19.7S66.3,30.1,66.3,43S55.8,66.3,43,66.3z"/>
	</g>
</g>
</svg>
