<?xml version="1.0" encoding="utf-8"?>
<!-- Generator: Adobe Illustrator 23.0.0, SVG Export Plug-In . SVG Version: 6.00 Build 0)  -->
<svg version="1.1" id="Capa_1" xmlns:svgjs="http://svgjs.com/svgjs"
	 xmlns="http://www.w3.org/2000/svg" xmlns:xlink="http://www.w3.org/1999/xlink" x="0px" y="0px" viewBox="0 0 512 512"
	 style="enable-background:new 0 0 512 512;" xml:space="preserve">
<style type="text/css">
	.st0{fill:#FF5672;}
</style>
<g>
	<path class="st0" d="M512,174V17c0-9.4-9.6-17-21.3-17H21.3C9.6,0,0,7.6,0,17v157c0,9.4,9.6,17,21.3,17h469.3
		C502.4,191,512,183.4,512,174z"/>
	<path class="st0" d="M0,338v157c0,9.4,9.6,17,21.3,17h469.3c11.8,0,21.3-7.6,21.3-17V338c0-9.4-9.6-17-21.3-17H21.3
		C9.6,321,0,328.6,0,338z"/>
</g>
</svg>
