<?xml version="1.0"?>
<svg xmlns="http://www.w3.org/2000/svg" xmlns:xlink="http://www.w3.org/1999/xlink" xmlns:svgjs="http://svgjs.com/svgjs" version="1.1" width="512" height="512" x="0" y="0" viewBox="0 0 444 444" style="enable-background:new 0 0 512 512" xml:space="preserve" class=""><g><path xmlns="http://www.w3.org/2000/svg" d="m7 0h181c3.867188 0 7 3.132812 7 7v181c0 3.867188-3.132812 7-7 7h-181c-3.867188 0-7-3.132812-7-7v-181c0-3.867188 3.132812-7 7-7zm0 0" fill="#ff5672" data-original="#000000" style="" class=""/><path xmlns="http://www.w3.org/2000/svg" d="m256 0h181c3.867188 0 7 3.132812 7 7v181c0 3.867188-3.132812 7-7 7h-181c-3.867188 0-7-3.132812-7-7v-181c0-3.867188 3.132812-7 7-7zm0 0" fill="#ff5672" data-original="#000000" style="" class=""/><path xmlns="http://www.w3.org/2000/svg" d="m7 249h181c3.867188 0 7 3.132812 7 7v181c0 3.867188-3.132812 7-7 7h-181c-3.867188 0-7-3.132812-7-7v-181c0-3.867188 3.132812-7 7-7zm0 0" fill="#ff5672" data-original="#000000" style="" class=""/><path xmlns="http://www.w3.org/2000/svg" d="m256 249h181c3.867188 0 7 3.132812 7 7v181c0 3.867188-3.132812 7-7 7h-181c-3.867188 0-7-3.132812-7-7v-181c0-3.867188 3.132812-7 7-7zm0 0" fill="#ff5672" data-original="#000000" style="" class=""/></g></svg>
